<svg id="Capa_1" enable-background="new 0 0 506.121 506.121" height="512" viewBox="0 0 506.121 506.121" width="512" xmlns="http://www.w3.org/2000/svg"><g><path d="m432.001 74.12c-47.796-47.797-111.346-74.12-178.94-74.12s-131.144 26.323-178.941 74.12-74.12 111.346-74.12 178.941 26.323 131.144 74.12 178.941 111.346 74.12 178.941 74.12 131.144-26.323 178.941-74.12 74.12-111.346 74.12-178.941-26.324-131.144-74.121-178.941zm-10.606 347.275c-44.963 44.964-104.746 69.727-168.334 69.727s-123.371-24.764-168.334-69.727c-44.964-44.964-69.727-104.746-69.727-168.334s24.763-123.371 69.727-168.334c44.963-44.964 104.745-69.727 168.334-69.727s123.371 24.763 168.334 69.727c44.964 44.963 69.727 104.746 69.727 168.334s-24.764 123.37-69.727 168.334zm-168.334-283.979c-15.996 0-28.895 13.984-27.557 29.844l9.861 123.587c.731 9.163 8.504 16.341 17.696 16.341s16.966-7.178 17.697-16.341l2.217-27.79c.33-4.129-2.75-7.744-6.879-8.073-4.127-.333-7.744 2.751-8.073 6.879l-2.217 27.79c-.114 1.421-1.319 2.534-2.745 2.534-1.425 0-2.63-1.113-2.744-2.534l-9.861-123.587c-.623-7.257 5.332-13.65 12.605-13.65 7.24 0 13.232 6.403 12.605 13.65l-5.438 68.16c-.33 4.129 2.75 7.744 6.879 8.073 4.136.338 7.744-2.75 8.073-6.879l5.438-68.16c1.346-15.867-11.765-29.844-27.557-29.844zm157.732-42.088c-42.132-42.132-98.149-65.335-157.733-65.335s-115.601 23.202-157.732 65.335c-42.132 42.132-65.335 98.149-65.335 157.733s23.203 115.601 65.335 157.733 98.149 65.335 157.733 65.335c82.245 0 157.565-45.033 196.567-117.524 1.962-3.648.596-8.196-3.051-10.158-3.647-1.963-8.196-.596-10.159 3.051-36.382 67.623-106.641 109.631-183.357 109.631-114.729 0-208.068-93.339-208.068-208.068s93.338-208.069 208.068-208.069 208.068 93.339 208.068 208.068c0 23.921-4.022 47.369-11.956 69.691-1.387 3.903.652 8.191 4.555 9.579 3.902 1.388 8.192-.652 9.579-4.555 8.508-23.94 12.822-49.078 12.822-74.715 0-59.583-23.203-115.601-65.336-157.732zm-157.732 226.174c-13.014 0-23.602 10.588-23.602 23.602s10.588 23.602 23.602 23.602 23.602-10.588 23.602-23.602-10.588-23.602-23.602-23.602zm0 32.204c-4.743 0-8.602-3.859-8.602-8.602s3.859-8.602 8.602-8.602 8.602 3.859 8.602 8.602-3.859 8.602-8.602 8.602z"/></g></svg>